<svg width="14" height="17" viewBox="0 0 14 17" fill="none" xmlns="http://www.w3.org/2000/svg">
<path d="M4.91406 11.79C6.087 11.6955 7.26554 11.6955 8.43848 11.79L8.44922 11.791C8.92244 11.8186 9.39409 11.8695 9.8623 11.9443L10.3301 12.0273C11.6944 12.3042 12.3944 12.7251 12.6709 13.251C12.8873 13.6843 12.8872 14.1995 12.6709 14.6328C12.3915 15.1646 11.717 15.612 10.3242 15.8555L10.3115 15.8574C9.69199 15.9823 9.06481 16.0637 8.43457 16.1006L8.40918 16.1025C7.83543 16.1658 7.25702 16.167 6.63965 16.167H5.56055C5.33257 16.1392 5.1093 16.1231 4.89062 16.1221C4.26201 16.0897 3.63632 16.012 3.01855 15.8877L3.01465 15.8867L2.53516 15.7803C1.5611 15.5341 0.999962 15.1796 0.730469 14.7598L0.673828 14.6621C0.561208 14.4466 0.501023 14.2052 0.5 13.959V13.9561L0.509766 13.7715C0.530349 13.5888 0.583985 13.4116 0.667969 13.249V13.248C0.938547 12.723 1.64097 12.2812 3.01074 12.0283L3.0166 12.0264C3.63898 11.9042 4.26873 11.826 4.90137 11.791L4.91406 11.79ZM6.66895 0.5C8.79642 0.50005 10.5448 2.27758 10.5449 4.5C10.5449 6.72255 8.79651 8.50093 6.66895 8.50098C4.54134 8.50098 2.79297 6.72259 2.79297 4.5C2.79312 2.27755 4.54143 0.5 6.66895 0.5Z" stroke="#FF4100"/>
</svg>
